PathFileType	4	(X/Y/Z)	C:/Users/beibeiliu/ov580/test_trc\sequence.4_training_dense_left.trc
DataRate	CameraRate	NumFrames	NumMarkers	Units	OrigDataRate	OrigDataStartFrame	OrigNumFrames
120	120	24	19	mm	120	28	82
Frame#	Time	ThumbCMC			ThumbMCP			ThumbIP			ThumbTip			IndexMCP			IndexPIP			IndexTip			MiddleMCP			MiddlePIP			MiddleTip			RingMCP			RingPIP			RingTip			PinkyMCP			PinkyPIP			PinkyTip			BackHand1			BackHand2			BackHand3	
		X0	Y0	Z0	X1	Y1	Z1	X2	Y2	Z2	X3	Y3	Z3	X4	Y4	Z4	X5	Y5	Z5	X6	Y6	Z6	X7	Y7	Z7	X8	Y8	Z8	X9	Y9	Z9	X10	Y10	Z10	X11	Y11	Z11	X12	Y12	Z12	X13	Y13	Z13	X14	Y14	Z14	X15	Y15	Z15	X16	Y16	Z16	X17	Y17	Z17	X18	Y18	Z18	
27	0.225	-171.791	87.4642	93.1374	-136.613	81.3805	97.1943	-118.297	59.5713	89.09	-113.132	34.9158	89.6922	-141.509	65.4603	42.5019	-115.368	61.5382	32.4551	-95.5072	51.9866	32.4869	-132.669	45.0298	49.1835	-111.994	40.9071	69.041	-130	59.4046	92.4848	-138.985	29.4643	66.9273	-126.142	40.0515	91.5668	-144.61	52.2836	103.302	-148.867	18.1147	79.0561	-135.649	31.1515	93.8793	-152.693	48.7249	104.58	-187.824	45.0737	71.4072	-209.186	51.3888	89.0011	-190.758	70.1247	70.5325	
28	0.233333	-177.428	98.5075	91.911	-147.222	97.437	97.5625	-123.962	84.8163	93.0523	-111.52	65.1839	93.2536	-139.791	82.7728	42.6774	-117.275	82.5678	37.1446	-88.5788	83.0152	37.4576	-132.669	65.126	51.1945	-107.122	70.0483	69.9711	-124.882	75.4589	92.6261	-128.264	51.2905	70.3815	-120.44	65.5005	92.262	-142.714	72.0114	103.413	-137.425	38.5561	80.4087	-129.384	52.8711	100.573	-151.396	64.6071	107.599	-179.704	44.8977	70.3874	-206.104	51.6192	88.7006	-194.962	72.8384	71.3547	
29	0.241667	-184.499	103.634	94.5973	-151.704	111.419	95.7735	-126.027	111.675	94.0505	-106.539	92.8565	94.7226	-142.311	97.6621	44.4696	-119.214	107.457	37.1315	-94.1436	118.379	38.6546	-125.802	80.474	51.0916	-105.423	93.8499	68.5812	-128.545	98.8276	92.8482	-122.653	72.0551	70.7208	-117.01	86.1833	92.2856	-139.97	85.6962	106.175	-127.895	59.4369	82.1318	-123.844	75.6201	101.9	-148.926	79.9092	106.107	-173.678	56.4759	73.1255	-193.914	53.8021	88.0923	-192.085	76.7738	71.7518	
30	0.25	-182.136	104.683	91.3226	-154.436	126.002	93.567	-132.816	123.706	92.9169	-108.994	111.426	92.1497	-142.169	114.841	40.6075	-122.876	121.572	36.5877	-97.7055	137.409	37.2632	-125.421	95.6299	51.6209	-104.857	113.081	67.9736	-124.748	112.007	91.8348	-115.768	89.0866	69.2369	-113.66	102.877	93.8223	-139.728	101.536	102.292	-117.585	75.8345	83.7408	-118.103	90.4632	101.246	-147.568	90.1058	107.491	-159.931	58.8655	71.2679	-183.02	53.5096	89.2804	-184.733	77.1026	71.2117	
31	0.258333	-183.812	105.831	92.5583	-158.869	132.765	93.4846	-137.123	133.724	89.657	-109.599	129.722	89.2327	-142.677	117.661	39.6821	-128.334	132.871	32.8748	-108.448	150.492	32.1287	-122.682	108.953	48.2026	-108.971	127.391	65.3155	-129.777	125.183	89.748	-114.232	96.7308	68.9646	-111.744	115.079	86.433	-136.409	109.558	101.683	-112.763	83.2316	82.573	-115.367	102.166	101.806	-138.745	99.2811	106.699	-153.851	64.0351	72.2028	-175.267	56.5761	90.9756	-181.091	81.7958	71.4568	
32	0.266667	-183.223	101.806	89.7014	-164.137	128.933	88.2513	-140.606	138.028	83.5614	-115.76	130.95	82.5371	-151.507	112.594	37.303	-132.494	128.837	26.0324	-115.348	146.694	22.386	-125.885	105.307	45.887	-111.267	129.366	57.2819	-131.828	126.823	82.7171	-116.269	100.854	62.1637	-112.184	119.583	80.4762	-134.332	112.824	97.1539	-109.198	88.6928	80.1353	-116.683	108.977	92.9484	-140.687	99.7581	101.115	-147.609	62.182	71.94	-168.353	53.5327	92.2761	-174.214	72.1628	74.3685	
33	0.275	-187.835	92.2098	84.299	-168.368	120.556	76.0832	-143.143	129.321	67.674	-122.122	126.063	69.2285	-151.148	94.3953	30.4564	-136.811	108.791	14.8737	-123.416	128.552	6.14647	-129.185	95.8744	36.2569	-117.547	119.935	44.7121	-134.759	120.575	70.9786	-118.142	94.8216	54.4491	-117.197	114.264	69.2411	-138.213	106.59	88.6788	-108.706	87.9798	73.2657	-119.914	105.277	84.1117	-140.05	97.7172	97.3034	-148.141	54.7044	70.5607	-162.444	45.7342	90.1026	-173.649	59.4197	70.9315	
34	0.283333	-188.862	74.3308	78.8795	-174.094	103.204	63.9486	-152.244	109.174	54.032	-126.753	106.556	52.9021	-157.576	65.6192	23.7723	-140.321	76.9271	2.27548	-129.999	88.176	-9.17303	-132.603	70.3626	27.1231	-122.85	97.6378	32.5839	-142.567	99.8343	58.5367	-119.712	71.8685	46.917	-124.255	99.2272	54.4865	-141.936	93.8379	76.8618	-113.041	67.3126	66.6474	-122.373	92.772	71.7407	-144.097	85.6371	83.6154	-148.904	38.1734	72.8566	-163.229	32.8663	98.1624	-173.499	41.5544	73.0982	
35	0.291667	-192.955	59.2497	76.0281	-174.344	78.1489	51.2262	-154.745	81.1661	41.6552	-129.668	79.4312	40.8838	-163.219	31.2258	22.0541	-149.855	35.1617	-2.67004	-137.602	40.8956	-16.1293	-133.652	37.7468	27.0094	-128.634	65.8258	22.1184	-146.346	76.642	45.7949	-123.041	44.6136	43.4569	-126.577	73.4397	44.4584	-143.878	75.0711	63.7143	-114.368	47.3997	58.7445	-124.274	70.9157	60.0574	-142.09	69.7765	74.9628	-149.674	18.146	77.6378	-164.266	19.9698	103.161	-178.174	25.8531	79.446	
36	0.3	-196.676	46.9753	74.1666	-177.74	56.9684	46.565	-159.068	56.4824	34.3966	-131.92	53.6505	27.4915	-169.643	3.4832	30.2732	-160.606	-2.29895	10.7217	-147.831	-3.5654	-9.79151	-146.209	8.43988	31.4321	-135.88	31.5173	16.3553	-146.057	51.1624	41.2746	-132.09	16.8938	45.484	-129.47	42.0433	36.8593	-149.558	53.8374	58.6948	-122.767	22.2569	57.1725	-127.45	43.3525	51.0892	-145.765	50.6557	68.788	-156.282	5.70309	88.3681	-170.112	12.8086	108.341	-184.441	14.1161	85.5033	
37	0.308333	-198.599	42.5551	75.1547	-182.149	45.9994	45.019	-165.793	41.9727	32.5595	-141.469	32.6565	23.6379	-186.96	-11.6393	34.9039	-182.171	-21.7223	15.9938	-175.712	-28.1842	-4.80873	-161.548	-8.47498	38.7854	-146.883	9.55089	19.7512	-152.519	33.0567	40.2832	-144.725	-2.58985	48.5054	-140.976	23.8337	35.3383	-150.442	40.3504	58.5957	-134.428	-0.766943	64.1739	-131.112	21.6427	50.458	-149.469	35.4215	60.0887	-172.78	0.602478	92.9695	-176.185	10.632	115.512	-197.732	11.3886	88.3179	
38	0.316667	-201.114	45.4914	78.9249	-186.826	49.0812	45.752	-172.27	36.6311	29.7231	-154.057	22.698	26.8302	-209.291	-5.7611	42.2697	-211.279	-19.3756	19.4488	-205.654	-32.8219	2.16242	-186.208	-11.5886	38.1996	-164.53	0.371308	20.0478	-163.61	25.8177	42.4869	-166.208	-10.4537	46.0996	-152.689	9.98246	34.6626	-156.362	30.3022	53.711	-153.029	-10.7824	60.7304	-143.072	7.62559	49.5717	-155.768	28.4279	66.2815	-183.272	-1.79683	95.4642	-189.587	13.4314	114.552	-209.056	16.8975	92.8723	
39	0.325	-200.54	50.6742	80.9118	-187.384	49.3878	51.589	-177.099	32.457	30.4327	-162.811	9.7779	25.5754	-227.418	2.99051	40.3739	-233.037	-5.60651	25.005	-236.607	-19.395	2.51596	-201.967	-11.1254	36.7408	-180.459	-0.756611	20.0444	-170.411	19.2208	38.9475	-186.422	-11.1649	45.8356	-165.864	4.35394	35.3856	-162.333	23.9119	57.122	-171.104	-16.6163	57.6943	-158.385	1.20197	48.933	-164.196	20.1483	67.033	-201.812	1.11236	94.6274	-196.375	14.2068	115.73	-215.552	27.9154	95.0327	
40	0.333333	-195.68	58.9413	78.616	-184.721	49.7902	49.6448	-180.855	34.0583	30.0216	-174.43	8.89803	22.5923	-238.335	21.4942	40.7697	-247.097	17.0613	22.0922	-254.785	6.50655	4.49321	-219.057	1.15569	35.321	-197.36	2.16062	16.8783	-180.584	22.4522	35.8907	-202.449	-8.80739	44.0524	-179.892	1.52961	32.2444	-172.063	20.3642	55.4646	-193.59	-15.2676	57.0539	-172.381	-4.97327	47.694	-171.954	17.2818	63.0369	-213.714	2.89667	91.4581	-205.509	17.8409	115.24	-218.778	34.4082	96.1322	
41	0.341667	-188.575	61.8342	81.1148	-178.292	51.5657	53.6563	-180.972	35.0329	27.8198	-185.889	10.9725	22.9755	-236.968	46.626	41.0864	-248.158	45.1781	23.6399	-259.475	39.3805	4.5171	-229.241	18.0048	31.6877	-207.324	13.9193	13.1289	-184.733	20.1585	36.4625	-217.078	1.72818	41.1524	-192.424	7.40303	29.3624	-179.182	19.5414	51.4467	-208.721	-11.3013	51.9132	-186.267	-2.39678	44.5667	-178.712	14.3139	66.113	-223.168	16.4963	89.2162	-211.522	25.9698	112.127	-216.703	47.2986	95.8266	
42	0.35	-183.412	60.4374	80.2325	-173.284	54.3422	49.8937	-184.636	38.5475	29.8261	-192.407	21.0045	20.9573	-229.584	70.8878	40.7011	-241.976	73.2662	18.8878	-254.165	76.3571	-0.976311	-231.816	40.4238	27.1282	-212.683	28.6375	10.1549	-188.306	31.941	33.9896	-225.055	19.8813	36.725	-198.716	12.9649	27.877	-185.02	21.9365	50.1266	-222.17	4.08166	46.4958	-197.871	6.44005	39.9468	-187.361	18.8882	60.5343	-227.987	32.1004	87.6832	-215.68	32.8298	110.606	-213.6	56.3844	94.9291	
43	0.358333	-177.613	62.7514	82.0579	-173.952	54.4479	51.7545	-180.214	47.1601	30.525	-198.117	30.9382	14.8469	-221.457	85.6709	38.1999	-224.596	96.7755	21.6097	-234.363	103.017	2.96939	-229.452	60.6132	28.9251	-210.594	47.9652	6.37726	-192.979	38.0861	29.378	-226.831	39.5802	29.7156	-206.323	27.4981	22.5533	-191.426	25.2358	49.1674	-228.794	25.4376	39.544	-207.055	17.312	35.9442	-193.527	23.9538	55.6575	-231.079	50.2661	81.5669	-222.652	41.8698	108.214	-208.674	67.6139	94.3012	
44	0.366667	-176.931	63.3441	84.4336	-167.703	56.6789	50.1425	-178.386	53.5809	23.9949	-197.915	43.9058	15.0437	-203.705	99.8206	37.8897	-207.401	110.29	20.0983	-213.504	120.943	-1.86401	-218.956	80.511	27.3827	-210.613	63.451	4.19207	-191.511	46.9948	27.2462	-225.756	55.8537	25.9587	-208.242	39.8551	19.6243	-195.819	33.6188	47.1296	-233.175	44.1307	39.6336	-210.464	28.8802	34.9486	-197.765	36.2925	57.2028	-228.498	65.6717	79.9978	-219.998	59.8824	104.015	-203.815	80.8226	89.9838	
45	0.375	-170.07	68.6901	80.2841	-164.856	58.8562	47.8002	-174.41	54.4333	28.7471	-190.012	48.5312	13.5203	-188.242	107.77	32.7237	-187.64	117.773	11.8235	-189.994	127.017	-7.98034	-207.738	90.7129	19.7886	-202.3	66.7672	2.97048	-189.555	51.2771	25.3926	-216.767	72.1373	24.7465	-205.144	49.9488	18.1696	-195.281	42.4976	47.7073	-228.421	56.3314	33.1672	-212.935	38.394	33.746	-198.775	40.7512	54.2096	-224.844	80.0594	76.9302	-215.621	75.6218	103.484	-195.13	88.8301	88.1777	
46	0.383333	-162.559	74.1124	75.4182	-158.405	56.336	47.4139	-171.251	51.8037	27.6876	-194.999	47.6752	17.1646	-177.699	106.75	26.2005	-178.816	112.905	5.94007	-182.347	118.389	-17.5582	-197.938	92.2409	14.9216	-194.527	64.1526	1.09819	-188.061	50.9347	27.2892	-216.81	74.1395	24.0628	-202.128	50.2137	19.266	-196.18	42.9745	46.724	-224.9	62.518	32.884	-211.98	45.5187	33.348	-199.949	46.4825	56.0792	-212.862	93.4409	71.1556	-208.896	87.4688	99.709	-184.623	97.0229	82.0807	
47	0.391667	-159.631	73.0038	74.0387	-164.521	53.386	49.7162	-175.224	42.7499	26.7092	-197.758	36.4976	19.0447	-178.251	100.112	16.0433	-178.372	100.167	-1.9515	-181.801	102.863	-26.1236	-200.497	85.4086	15.8859	-201.941	55.8858	4.3838	-188.979	45.8687	32.9258	-216.345	67.9637	23.5387	-205.71	45.4661	25.4184	-196.503	42.331	53.5885	-225.107	64.8288	39.1895	-213.88	42.99	43.2855	-199.81	49.9089	64.1986	-209.99	95.1535	71.7142	-202.007	98.0707	94.0845	-180.196	101.754	77.0202	
48	0.4	-162.697	71.2826	75.8437	-169.588	46.7242	53.6899	-182.639	32.9503	33.3907	-208.609	31.0851	30.635	-185.222	89.5736	14.8282	-191.381	86.0128	-6.21675	-196.674	81.7842	-27.6586	-208.779	74.9242	17.7778	-205.763	44.1767	11.2152	-192.155	40.3274	40.5666	-218.972	64.5089	30.667	-214.815	36.2645	36.4773	-197.119	42.1639	59.9204	-232.077	56.8106	44.7249	-216.503	38.8515	52.4511	-202.991	45.7285	68.5028	-213.226	96.1973	71.5823	-203.917	98.7073	92.2672	-185.113	100.255	75.9031	
49	0.408333	-165.172	65.5125	72.0511	-174.449	40.5173	57.8754	-189.513	25.9211	43.2101	-215.01	19.1374	38.4857	-193.785	75.8243	12.71	-199.334	65.7319	-7.55547	-204.969	55.3791	-24.4789	-213.966	62.7222	19.1157	-213.966	33.182	20.238	-200.349	33.1323	52.058	-227.133	53.7386	34.8773	-216.19	28.8459	44.2049	-203.473	33.7601	68.0071	-234.049	56.6553	51.2451	-221.411	34.5642	56.5779	-204.795	41.3184	77.8686	-216.235	93.0369	68.0485	-203.219	96.7406	92.4277	-186.668	96.208	71.9173	
50	0.416667	-164.854	63.0966	81.0245	-172.102	32.378	64.4528	-186.473	16.8657	53.9846	-210.347	5.29744	48.0199	-187.688	61.4528	19.0364	-198.389	44.9456	-1.22773	-198.551	27.9007	-14.0865	-211.045	49.0113	24.1122	-209.655	19.3909	28.7819	-198.837	22.3522	58.094	-223.047	43.9502	39.2351	-214.25	18.8806	54.2759	-199.857	31.3208	76.3012	-232.974	41.3936	55.0615	-221.908	24.4673	66.1574	-202.709	35.0993	80.023	-216.086	86.0246	68.9674	-208.716	95.1764	90.6122	-188.267	91.4558	70.9958	
